<svg aria-hidden="true" style="position: absolute; width: 0; height: 0; overflow: hidden;" version="1.1" xmlns="http://www.w3.org/2000/svg" xmlns:xlink="http://www.w3.org/1999/xlink">
<defs>

<symbol id="icon-facebook" viewBox="0 0 32 32">
<title>icon-facebook</title>
<path d="M17.823 5.393l-3.099 0.002c-2.429 0-2.9 1.118-2.9 2.757v3.615h5.794l-0.002 5.662h-5.792v14.533h-6.042v-14.533h-5.054v-5.662h5.054v-4.176c0-4.847 3.058-7.486 7.526-7.486l4.515 0.008v5.281z"></path>
</symbol>


<symbol id="icon-instagram" viewBox="0 0 32 32">
<title>icon-instagram</title>
<path d="M22.187 0.305h-13.542c-4.599 0-8.34 3.742-8.34 8.34v13.542c0 4.599 3.741 8.34 8.34 8.34h13.542c4.599 0 8.34-3.742 8.34-8.34v-13.542c0-4.599-3.741-8.34-8.34-8.34zM27.846 22.187c0 3.12-2.539 5.659-5.659 5.659h-13.542c-3.12 0-5.659-2.538-5.659-5.659v-13.542c0-3.12 2.538-5.659 5.659-5.659h13.542c3.12 0 5.659 2.539 5.659 5.659v13.542h0z"></path>
<path d="M15.416 7.416c-4.411 0-8 3.589-8 8s3.589 8 8 8 8-3.589 8-8c0-4.411-3.589-8-8-8zM15.416 20.661c-2.892 0-5.245-2.353-5.245-5.245s2.353-5.245 5.245-5.245 5.245 2.353 5.245 5.245c0 2.892-2.353 5.245-5.245 5.245z"></path>
<path d="M23.416 5.638c-0.467 0-0.926 0.189-1.256 0.52-0.331 0.33-0.522 0.789-0.522 1.257 0 0.467 0.191 0.926 0.522 1.257 0.33 0.33 0.789 0.52 1.256 0.52 0.469 0 0.926-0.191 1.257-0.52 0.331-0.331 0.52-0.79 0.52-1.257 0-0.469-0.189-0.928-0.52-1.257-0.33-0.331-0.789-0.52-1.257-0.52z"></path>
</symbol>

<symbol id="icon-linkedin" viewBox="0 0 32 32">
<title>icon-linkedin</title>
<path d="M3.677 0.725c-1.939 0-3.51 1.522-3.51 3.393 0 1.875 1.569 3.397 3.51 3.397 1.936 0 3.507-1.522 3.507-3.397 0-1.872-1.573-3.393-3.507-3.393z"></path>
<path d="M0.167 29.602h6.051v-18.842h-6.051z"></path>
<path d="M22.234 10.76c-2.965 0-4.954 1.574-5.769 3.065h-0.082v-2.593h-5.847v18.982h6.091v-9.389c0-2.477 0.488-4.875 3.66-4.875 3.125 0 3.167 2.831 3.167 5.032v9.232h6.092v-10.412c0-5.111-1.14-9.042-7.313-9.042z"></path>
</symbol>


<symbol id="icon-twitter" viewBox="0 0 32 32">
<title>icon-twitter</title>
<path d="M36.466 5.144c-0.052-0.059-0.137-0.079-0.209-0.045-1.068 0.458-2.195 0.788-3.354 0.985 1.232-0.898 2.148-2.139 2.618-3.561 0.022-0.067 0-0.142-0.059-0.187-0.057-0.043-0.137-0.050-0.2-0.013-1.386 0.796-2.888 1.356-4.464 1.669-1.396-1.403-3.348-2.208-5.368-2.208-4.106 0-7.445 3.233-7.445 7.207 0 0.48 0.047 0.957 0.143 1.418-5.688-0.339-11.005-2.982-14.623-7.274-0.036-0.045-0.092-0.069-0.15-0.062-0.059 0.003-0.111 0.035-0.14 0.085-0.66 1.094-1.009 2.346-1.009 3.623 0 2.208 1.037 4.273 2.803 5.638-0.909-0.107-1.797-0.385-2.598-0.815-0.054-0.028-0.121-0.028-0.175 0.002s-0.088 0.085-0.090 0.146v0.092c0 3.173 2.16 5.959 5.233 6.884-0.809 0.125-1.649 0.117-2.475-0.033-0.061-0.012-0.124 0.007-0.166 0.054-0.041 0.045-0.055 0.109-0.036 0.166 0.921 2.785 3.482 4.736 6.464 4.981-2.487 1.764-5.425 2.691-8.532 2.691-0.572 0-1.148-0.032-1.711-0.095-0.081-0.010-0.161 0.037-0.188 0.112s0.002 0.161 0.071 0.202c3.361 2.086 7.246 3.188 11.239 3.188 13.057 0 20.858-10.262 20.858-20.187 0-0.276-0.005-0.55-0.017-0.825 1.409-0.997 2.618-2.218 3.593-3.631 0.043-0.062 0.038-0.147-0.012-0.206z"></path>
</symbol>

<symbol id="icon-search" viewBox="0 0 32 32">
<title>icon-search</title>
<path d="M23.146 21.905c4.477-4.477 4.477-11.735 0-16.212s-11.735-4.477-16.212 0c-4.477 4.477-4.477 11.735 0 16.212s11.735 4.477 16.212 0zM23.827 24c-5.289 4.566-13.287 4.339-18.307-0.681-5.258-5.258-5.258-13.782 0-19.040s13.782-5.258 19.040 0c5.020 5.020 5.247 13.018 0.681 18.307l7.89 7.89-1.414 1.414-7.89-7.89z"></path>
</symbol>

</defs>
</svg>
